<?xml version="1.0" standalone="no"?>
<!DOCTYPE svg PUBLIC "-//W3C//DTD SVG 20010904//EN"
 "http://www.w3.org/TR/2001/REC-SVG-20010904/DTD/svg10.dtd">
<svg version="1.0" xmlns="http://www.w3.org/2000/svg"
 width="216.000000pt" height="216.000000pt" viewBox="0 0 216.000000 216.000000"
 preserveAspectRatio="xMidYMid meet">
<metadata>
Created by potrace 1.11, written by Peter Selinger 2001-2013
</metadata>
<g transform="translate(0.000000,216.000000) scale(0.100000,-0.100000)"
fill="#000000" stroke="none">
<path d="M994 1781 c-50 -13 -117 -48 -162 -86 -40 -35 -96 -132 -107 -185
-25 -118 24 -265 115 -343 38 -33 41 -37 38 -83 -3 -47 -2 -49 32 -59 33 -9
35 -13 32 -46 -3 -33 1 -39 32 -59 27 -16 36 -28 36 -48 0 -35 -7 -42 -55 -68
-31 -17 -41 -29 -43 -50 -2 -25 3 -32 36 -47 34 -16 38 -23 38 -53 -1 -27 -6
-36 -28 -45 -36 -15 -38 -51 -3 -69 14 -7 25 -21 25 -31 0 -25 -11 -50 -20
-44 -4 3 -13 -2 -20 -10 -7 -8 -18 -15 -25 -15 -17 0 -27 -42 -12 -52 38 -26
176 -108 180 -108 3 0 5 8 5 17 0 18 11 360 17 498 2 39 3 101 4 138 l1 68 28
-3 27 -3 -2 -80 c-2 -111 -14 -495 -17 -577 -2 -38 0 -68 5 -68 4 0 19 14 33
31 23 27 26 40 27 107 1 79 2 117 13 492 6 208 7 215 29 229 12 8 45 38 73 66
141 142 128 369 -28 511 -21 19 -43 32 -48 29 -6 -4 -10 -2 -10 3 0 30 -175
61 -246 43z m199 -69 c133 -59 205 -208 171 -352 -4 -19 -8 -37 -9 -40 0 -3
-12 -23 -27 -46 -55 -86 -144 -137 -247 -140 -118 -4 -218 53 -276 157 -27 49
-30 63 -30 144 0 81 3 95 30 143 16 30 41 64 56 77 16 12 26 26 23 29 -2 3 -1
4 2 2 3 -3 24 5 46 16 22 12 54 24 71 28 53 12 141 3 190 -18z"/>
<path d="M972 1691 c-110 -44 -174 -145 -167 -264 1 -28 9 -68 18 -88 18 -44
85 -121 98 -113 5 3 9 1 9 -5 0 -5 21 -17 46 -27 164 -62 347 54 360 229 4 53
-21 157 -37 157 -5 0 -9 5 -9 12 0 21 -82 87 -128 103 -59 20 -136 18 -190 -4z
m174 -79 c22 -16 41 -70 36 -102 -5 -29 -24 -58 -47 -70 -64 -34 -136 -7 -155
58 -31 100 81 176 166 114z"/>
</g>
</svg>
